<svg xmlns="http://www.w3.org/2000/svg" width="102.72" height="102.742" viewBox="0 0 102.72 102.742">
  <path id="avatar" d="M92.207,24.082a11.984,11.984,0,1,0-13.784,1.975,8.508,8.508,0,0,0-3.045,6.492v13.7H70.242v-13.7A12,12,0,0,0,59.679,20.658a11.984,11.984,0,1,0-16.538,0A12,12,0,0,0,32.578,32.549v13.7H27.442v-13.7A8.508,8.508,0,0,0,24.4,26.058a11.984,11.984,0,1,0-13.784-1.975A12,12,0,0,0,.05,35.973v25.68A11.984,11.984,0,0,0,6.9,72.465v30.277h3.424V73.5c.562.08,11.984.137,11.984.137a1.712,1.712,0,0,1,1.712,1.712v27.392h13.7V70.213H49.7v29.1H42.85v3.424H59.97V99.317H53.122v-29.1H65.106v32.528H78.8V75.349a1.712,1.712,0,0,1,1.712-1.712S91.937,73.58,92.5,73.5v29.241h3.424V72.465a11.984,11.984,0,0,0,6.848-10.811V35.973A12,12,0,0,0,92.207,24.082ZM75.378,15.429a8.56,8.56,0,1,1,8.56,8.56A8.56,8.56,0,0,1,75.378,15.429ZM55.06,23.989l-3.65,5.479-3.65-5.479ZM42.85,12.005a8.56,8.56,0,1,1,8.56,8.56,8.56,8.56,0,0,1-8.56-8.56ZM36,32.549a8.542,8.542,0,0,1,7.7-8.473l7.7,11.554,7.7-11.559a8.541,8.541,0,0,1,7.7,8.478v13.7H59.97V56.517H42.85V46.245H36Zm-25.68-17.12a8.56,8.56,0,1,1,8.56,8.56A8.56,8.56,0,0,1,10.322,15.429ZM34.29,99.317H27.442V75.349a5.136,5.136,0,0,0-5.136-5.136H12.034a8.57,8.57,0,0,1-8.56-8.56V35.973a8.57,8.57,0,0,1,8.56-8.56h6.848a5.136,5.136,0,0,1,5.136,5.136v17.12H39.426v6.848H18.882a1.712,1.712,0,0,1-1.712-1.712V34.261H13.746V54.805a5.136,5.136,0,0,0,5.136,5.136H25.73a8.57,8.57,0,0,1,8.56,8.56Zm3.287-32.528A11.959,11.959,0,0,0,34.1,59.941H68.72a11.959,11.959,0,0,0-3.477,6.848Zm61.769-5.136a8.57,8.57,0,0,1-8.56,8.56H80.514a5.136,5.136,0,0,0-5.136,5.136V99.317H68.53V68.5a8.57,8.57,0,0,1,8.56-8.56h6.848a5.136,5.136,0,0,0,5.136-5.136V34.261H85.65V54.805a1.712,1.712,0,0,1-1.712,1.712H63.394V49.669H78.8V32.549a5.136,5.136,0,0,1,5.136-5.136h6.848a8.57,8.57,0,0,1,8.56,8.56Zm0,0" transform="translate(-0.05 0)"/>
</svg>
