<svg xmlns="http://www.w3.org/2000/svg" width="61.111" height="61.111" viewBox="0 0 61.111 61.111">
  <g id="Group_489" data-name="Group 489" transform="translate(-1138 -8168)">
    <path id="Icon_ionic-logo-youtube" data-name="Icon ionic-logo-youtube" d="M29.139,9.358A4.454,4.454,0,0,0,24.9,4.706c-3.174-.149-6.411-.206-9.717-.206H14.151c-3.3,0-6.543.057-9.717.206A4.463,4.463,0,0,0,.2,9.37c-.143,2.04-.206,4.079-.2,6.119s.057,4.079.195,6.125a4.469,4.469,0,0,0,4.234,4.669c3.334.155,6.755.223,10.233.218q5.225.017,10.233-.218a4.469,4.469,0,0,0,4.24-4.669c.138-2.045.2-4.085.195-6.13Q29.345,12.424,29.139,9.358ZM11.86,21.109V9.851l8.307,5.626Z" transform="translate(1154 8183.5)" fill="#fff"/>
    <g id="Ellipse_94" data-name="Ellipse 94" transform="translate(1138 8168)" fill="none" stroke="#fff" stroke-width="1">
      <circle cx="30.556" cy="30.556" r="30.556" stroke="none"/>
      <circle cx="30.556" cy="30.556" r="30.056" fill="none"/>
    </g>
  </g>
</svg>
