<svg xmlns="http://www.w3.org/2000/svg" width="61.111" height="61.111" viewBox="0 0 61.111 61.111">
  <g id="Group_487" data-name="Group 487" transform="translate(-958 -8168)">
    <path id="Icon_awesome-twitter" data-name="Icon awesome-twitter" d="M26.315,9.317c.019.261.019.521.019.782,0,7.947-6.048,17.1-17.1,17.1A16.987,16.987,0,0,1,0,24.5a12.435,12.435,0,0,0,1.452.074A12.039,12.039,0,0,0,8.914,22.01a6.022,6.022,0,0,1-5.62-4.169,7.581,7.581,0,0,0,1.135.093,6.358,6.358,0,0,0,1.582-.2,6.012,6.012,0,0,1-4.82-5.9v-.074a6.054,6.054,0,0,0,2.717.763,6.02,6.02,0,0,1-1.861-8.04,17.086,17.086,0,0,0,12.395,6.29,6.787,6.787,0,0,1-.149-1.377A6.017,6.017,0,0,1,24.7,5.279a11.835,11.835,0,0,0,3.815-1.452A6,6,0,0,1,25.868,7.14a12.051,12.051,0,0,0,3.462-.93,12.922,12.922,0,0,1-3.015,3.108Z" transform="translate(974 8183.619)" fill="#fff"/>
    <g id="Ellipse_95" data-name="Ellipse 95" transform="translate(958 8168)" fill="none" stroke="#fff" stroke-width="1">
      <circle cx="30.556" cy="30.556" r="30.556" stroke="none"/>
      <circle cx="30.556" cy="30.556" r="30.056" fill="none"/>
    </g>
  </g>
</svg>
