<svg xmlns="http://www.w3.org/2000/svg" width="61.111" height="61.111" viewBox="0 0 61.111 61.111">
  <g id="Group_488" data-name="Group 488" transform="translate(-1048 -8168)">
    <path id="Icon_awesome-linkedin-in" data-name="Icon awesome-linkedin-in" d="M5.858,26.17H.432V8.7H5.858ZM3.142,6.315A3.157,3.157,0,1,1,6.284,3.143,3.169,3.169,0,0,1,3.142,6.315ZM26.164,26.17H20.75V17.665c0-2.027-.041-4.626-2.821-4.626-2.821,0-3.253,2.2-3.253,4.48V26.17H9.256V8.7h5.2v2.383h.076A5.7,5.7,0,0,1,19.67,8.26c5.491,0,6.5,3.616,6.5,8.312v9.6Z" transform="translate(1066 8184.999)" fill="#fff"/>
    <g id="Ellipse_96" data-name="Ellipse 96" transform="translate(1048 8168)" fill="none" stroke="#fff" stroke-width="1">
      <circle cx="30.556" cy="30.556" r="30.556" stroke="none"/>
      <circle cx="30.556" cy="30.556" r="30.056" fill="none"/>
    </g>
  </g>
</svg>
