<svg id="plan" xmlns="http://www.w3.org/2000/svg" width="105.41" height="83.297" viewBox="0 0 105.41 83.297">
  <path id="Path_403" data-name="Path 403" d="M94.082,64.991V59.284a2.511,2.511,0,0,0-2.492-2.492H86.467a2.5,2.5,0,0,0-2.492,2.492v5.708H94.082ZM29.536,92.741a1.543,1.543,0,0,1,2.183-2.183l1.407,1.407,3.9-3.91a1.545,1.545,0,1,1,2.183,2.188l-5,5a1.547,1.547,0,0,1-2.183,0ZM87.482,74.924a1.544,1.544,0,1,1,3.087,0v32.407a1.544,1.544,0,1,1-3.087,0ZM63.14,127.167h9.5v-6.624h-9.5Zm11.042,3.087H23.822a1.549,1.549,0,0,1-1.547-1.547V119a1.544,1.544,0,0,1,1.547-1.541H34.87v-8.8a1.539,1.539,0,0,1,1.541-1.54H49a1.539,1.539,0,0,1,1.541,1.54V111.4H61.593a1.549,1.549,0,0,1,1.547,1.547v4.511H74.181A1.544,1.544,0,0,1,75.728,119v9.711a1.549,1.549,0,0,1-1.546,1.547Zm-23.636-3.087h9.5V114.491h-9.5Zm-12.588,0h9.5V110.2h-9.5Zm-12.594,0H34.87v-6.624H25.363ZM18.85,73.377H80.881V59.284A5.6,5.6,0,0,1,86.467,53.7H91.59a5.6,5.6,0,0,1,5.579,5.579V73.377h6.7a1.544,1.544,0,0,1,1.541,1.547V135.46A1.539,1.539,0,0,1,103.869,137H61.121a1.544,1.544,0,0,1,0-3.087h41.2V76.465H97.17V87.629a1.544,1.544,0,1,1-3.087,0V68.078H83.974v46.1H94.082V94.626a1.544,1.544,0,1,1,3.087,0v21.091a1.639,1.639,0,0,1-.263.875l-6.5,12.8a1.57,1.57,0,0,1-.689.689,1.537,1.537,0,0,1-2.066-.683l-6.525-12.839a1.643,1.643,0,0,1-.245-.846V76.465H18.85V88.148a1.544,1.544,0,1,1-3.087,0V58.04a8.19,8.19,0,0,0-4.383-1.249,8.289,8.289,0,0,0-8.293,8.293V117.83c.082-.088.163-.175.245-.257a11.349,11.349,0,0,1,8.048-3.332A11.524,11.524,0,0,1,15,114.83c.257.088.514.187.764.292V95.146a1.544,1.544,0,1,1,3.087,0v22.626A1.544,1.544,0,0,1,16.376,119a8.086,8.086,0,0,0-2.358-1.243,8.3,8.3,0,1,0-2.638,16.16H54.129a1.544,1.544,0,0,1,0,3.087H11.38A11.377,11.377,0,0,1,0,125.621V65.084a11.38,11.38,0,0,1,18.161-9.139,1.555,1.555,0,0,1,.689,1.29V73.377Zm74.263,43.886H84.937l4.091,8.048ZM72.477,82.732a1.544,1.544,0,0,1,0,3.087h-20.9a1.544,1.544,0,0,1,0-3.087Zm-8.69,14.742a1.544,1.544,0,1,1,0,3.087H51.579a1.544,1.544,0,0,1,0-3.087Zm8.69-7.371a1.544,1.544,0,0,1,0,3.087h-20.9a1.544,1.544,0,0,1,0-3.087ZM25.532,81.256H43.221A1.544,1.544,0,0,1,44.762,82.8v17.689a1.544,1.544,0,0,1-1.541,1.547H25.532a1.545,1.545,0,0,1-1.547-1.547V82.8a1.545,1.545,0,0,1,1.547-1.547Zm16.143,3.093h-14.6v14.6h14.6Z" transform="translate(0 -53.704)"/>
</svg>
