<svg xmlns="http://www.w3.org/2000/svg" width="99.88" height="102.904" viewBox="0 0 99.88 102.904">
  <g id="restaurant" transform="translate(-7.266)">
    <g id="Group_548" data-name="Group 548" transform="translate(19.382 73.709)">
      <path id="Path_412" data-name="Path 412" d="M83.875,356.4H80.94v-2.934h2.934Zm-5.869,0H75.072v-2.934h2.934Zm-5.869,0H69.2v-2.934h2.934Z" transform="translate(-69.203 -353.469)"/>
    </g>
    <g id="Group_549" data-name="Group 549" transform="translate(7.266 0)">
      <path id="Path_413" data-name="Path 413" d="M102.45,99.782V82.709H99.328v4.586H71.242V70.032H99.328v9.561h3.122V60.81a10.889,10.889,0,0,0,3.135-7.651V49.845L99,23.5H83.559A26.422,26.422,0,0,0,73.923,5.93L71.954,8.353a23.4,23.4,0,0,1-3.829,38.865V34.857c3.94-.675,6.244-3.98,6.244-9.132,0-6.536-3.428-11.656-7.805-11.656s-7.805,5.12-7.805,11.656c0,5.152,2.3,8.457,6.244,9.132V48.59a23.4,23.4,0,0,1-15.6,0l.007-15.72h.521a5.73,5.73,0,0,0,5.724-5.724V15.689H52.529v4.675H49.407v-4.67H46.285v4.67H43.163V15.689H40.041V27.142a5.73,5.73,0,0,0,5.724,5.724h.52l-.006,14.347A23.4,23.4,0,1,1,69.563,6.646L71.214,4A26.529,26.529,0,0,0,30.855,23.5H15.387L8.8,49.845V53.16a10.89,10.89,0,0,0,3.135,7.651V99.782H7.266V102.9h99.88V99.782Zm.013-46.623a7.805,7.805,0,0,1-15.61,0h-.038l-.17-1.555h15.818Zm-5.9-26.538,5.465,21.861H86.3L83.911,26.622ZM81.836,36.367l1.326,12.116H72.069A26.675,26.675,0,0,0,81.836,36.367ZM83.5,51.605l.216,1.97a7.8,7.8,0,0,1-15.593-.164V51.605H83.5ZM61.883,25.726c0-4.036,1.923-8.534,4.683-8.534s4.683,4.5,4.683,8.534c0,4.074-1.576,6.14-4.683,6.14S61.883,29.8,61.883,25.726ZM57.206,53.049a26.438,26.438,0,0,0,7.8-1.17V53.16H65a7.8,7.8,0,0,1-15.6.44V51.876A26.443,26.443,0,0,0,57.206,53.049ZM45.765,29.744a2.6,2.6,0,0,1-2.6-2.6V23.487h9.366v3.656a2.6,2.6,0,0,1-2.6,2.6ZM47.84,58.819a10.93,10.93,0,0,0,18.719-.035,10.922,10.922,0,0,0,18.732,0,10.917,10.917,0,0,0,14.036,4.253V66.91H15.058V63.036a10.917,10.917,0,0,0,14.049-4.275,10.93,10.93,0,0,0,18.732.057ZM30.681,53.012l.156-1.407h7.649V48.483h-7.3l1.356-12.2A26.68,26.68,0,0,0,46.277,50.692V53.6a7.8,7.8,0,0,1-15.6-.44ZM17.825,26.622H30.472L28.044,48.483H12.36Zm-5.9,26.538V51.605h15.61V53.16a7.805,7.805,0,0,1-15.61,0ZM43.157,99.782h-28.1V90.416h28.1Zm0-12.488h-28.1V70.032h28.1ZM68.107,99.782H46.279V70.032H68.107Zm31.221,0h-28.1V90.416h28.1Z" transform="translate(-7.266 0)"/>
      <path id="Path_414" data-name="Path 414" d="M224.641,389.437h2.934v5.869h-2.934Z" transform="translate(-179.309 -308.066)"/>
      <path id="Path_415" data-name="Path 415" d="M254.641,389.437h2.934v5.869h-2.934Z" transform="translate(-203.053 -308.066)"/>
    </g>
  </g>
</svg>
